<svg xmlns="http://www.w3.org/2000/svg" shape-rendering="geometricPrecision" text-rendering="geometricPrecision" image-rendering="optimizeQuality" fill-rule="evenodd" clip-rule="evenodd" viewBox="0 0 512 293.531"><path fill="#1A1A1A" d="M67.877 0h376.247c4.942 0 8.985 4.043 8.985 8.985v252.981c0 4.942-4.043 8.986-8.985 8.986H67.877c-4.942 0-8.986-4.044-8.986-8.986V8.985C58.891 4.043 62.935 0 67.877 0z"/><path fill="#6CC0EF" d="M72.115 12.053h367.772v246.849H72.115z"/><path fill="#7BC6F1" d="M72.114 12.054h367.772V258.9C290.866 233.845 171.36 140.054 72.114 12.054z"/><path fill="#A5A5A5" fill-rule="nonzero" d="M12.371 268.787h487.258c6.797 0 12.371 5.574 12.371 12.371 0 6.797-5.574 12.373-12.371 12.373H12.371C5.574 293.531 0 287.958 0 281.161c0-6.8 5.571-12.374 12.371-12.374z"/><path fill="#CBCBCB" fill-rule="nonzero" d="M499.629 272.537H12.371c-4.753 0-8.621 3.869-8.621 8.621 0 4.752 3.868 8.624 8.621 8.624h487.258c4.75 0 8.621-3.872 8.621-8.621 0-4.752-3.868-8.624-8.621-8.624z"/><path fill="#A5A5A5" d="M241.239 276.127h29.521c2.768 0 5.033 2.265 5.033 5.033 0 2.768-2.265 5.032-5.033 5.032h-29.521a5.046 5.046 0 01-5.032-5.032c0-2.768 2.264-5.033 5.032-5.033z"/></svg>